<svg width="84" height="84" viewBox="0 0 85 85" fill="none" xmlns="http://www.w3.org/2000/svg"><mask id="b" style="mask-type:alpha" maskUnits="userSpaceOnUse" x="0" y="0" width="85" height="85"><path fill-rule="evenodd" clip-rule="evenodd" d="M42.5 0C19.028 0 0 19.028 0 42.5S19.028 85 42.5 85 85 65.972 85 42.5 65.972 0 42.5 0Zm1 25c-3.05 0-6.07.611-8.888 1.8a23.225 23.225 0 0 0-7.542 5.129 1.5 1.5 0 1 1-2.14-2.103 26.222 26.222 0 0 1 8.516-5.79A25.876 25.876 0 0 1 43.5 22c3.45 0 6.867.692 10.054 2.035a26.222 26.222 0 0 1 8.516 5.791 1.5 1.5 0 1 1-2.14 2.103 23.225 23.225 0 0 0-7.542-5.13A22.874 22.874 0 0 0 43.5 25Zm0 8.396a14.75 14.75 0 0 0-5.731 1.16 14.981 14.981 0 0 0-4.866 3.31 1.5 1.5 0 0 1-2.14-2.103 17.98 17.98 0 0 1 5.84-3.971 17.748 17.748 0 0 1 13.793 0 17.98 17.98 0 0 1 5.84 3.97 1.5 1.5 0 1 1-2.14 2.103 14.981 14.981 0 0 0-4.865-3.309 14.747 14.747 0 0 0-5.731-1.16Zm0 8.396c-.883 0-1.757.177-2.574.521a6.742 6.742 0 0 0-2.19 1.49 1.5 1.5 0 1 1-2.14-2.103 9.742 9.742 0 0 1 3.164-2.151 9.625 9.625 0 0 1 7.48 0c1.184.5 2.26 1.23 3.163 2.15a1.5 1.5 0 0 1-2.14 2.103 6.742 6.742 0 0 0-2.189-1.489 6.625 6.625 0 0 0-2.574-.521Zm-19 9.51a1.5 1.5 0 0 0 0 3h37a1.5 1.5 0 1 0 0-3h-37Zm8 7.7a1.5 1.5 0 0 0 0 3h21a1.5 1.5 0 0 0 0-3h-21Z" fill="url(#a)"/></mask><g filter="url(#c)" mask="url(#b)"><path d="M-3 44.5C-3 19.371 17.371-1 42.5-1S88 19.371 88 44.5 67.629 90 42.5 90-3 69.629-3 44.5Z" fill="url(#d)"/></g><g filter="url(#e)"><path fill-rule="evenodd" clip-rule="evenodd" d="M34.612 26.8A22.874 22.874 0 0 1 43.5 25c3.05 0 6.07.611 8.888 1.8a23.225 23.225 0 0 1 7.542 5.129 1.5 1.5 0 1 0 2.14-2.103 26.222 26.222 0 0 0-8.516-5.79A25.876 25.876 0 0 0 43.5 22c-3.45 0-6.867.692-10.054 2.035a26.222 26.222 0 0 0-8.516 5.791 1.5 1.5 0 1 0 2.14 2.103 23.225 23.225 0 0 1 7.542-5.13Zm3.157 7.756a14.75 14.75 0 0 1 5.731-1.16c1.966 0 3.913.394 5.731 1.16a14.981 14.981 0 0 1 4.866 3.31 1.5 1.5 0 0 0 2.14-2.103 17.98 17.98 0 0 0-5.84-3.971 17.748 17.748 0 0 0-13.794 0 17.98 17.98 0 0 0-5.84 3.97 1.5 1.5 0 1 0 2.14 2.103 14.981 14.981 0 0 1 4.866-3.309Zm3.157 7.757a6.625 6.625 0 0 1 5.148 0c.817.345 1.561.85 2.19 1.49a1.5 1.5 0 1 0 2.14-2.103 9.742 9.742 0 0 0-3.164-2.151 9.625 9.625 0 0 0-7.48 0 9.742 9.742 0 0 0-3.163 2.15 1.5 1.5 0 0 0 2.14 2.103 6.742 6.742 0 0 1 2.189-1.489ZM23 52.802a1.5 1.5 0 0 1 1.5-1.5h37a1.5 1.5 0 0 1 0 3h-37a1.5 1.5 0 0 1-1.5-1.5Zm8 7.7a1.5 1.5 0 0 1 1.5-1.5h21a1.5 1.5 0 0 1 0 3h-21a1.5 1.5 0 0 1-1.5-1.5Z" fill="url(#f)"/></g><defs><radialGradient id="a" cx="0" cy="0" r="1" gradientUnits="userSpaceOnUse" gradientTransform="rotate(56.901 13.206 -19.69) scale(174.879)"><stop offset=".202" stop-color="#FFFCEF"/><stop offset=".466" stop-color="#9AA9FA"/><stop offset=".635" stop-color="#F7D3ED"/><stop offset=".731" stop-color="#FFFCEF"/></radialGradient><radialGradient id="d" cx="0" cy="0" r="1" gradientUnits="userSpaceOnUse" gradientTransform="rotate(-38.258 120.619 41.03) scale(111.433)"><stop offset=".202" stop-color="#FFFCEF"/><stop offset=".37" stop-color="#B9C4FF"/><stop offset=".595" stop-color="#494DC1"/><stop offset=".747" stop-color="#FF8FED"/><stop offset=".825" stop-color="#FFFCEF"/></radialGradient><radialGradient id="f" cx="0" cy="0" r="1" gradientUnits="userSpaceOnUse" gradientTransform="rotate(-38.26 97.525 -5.8) scale(48.9824 48.9829)"><stop offset=".202" stop-color="#FFFCEF"/><stop offset=".37" stop-color="#B9C4FF"/><stop offset=".595" stop-color="#494DC1"/><stop offset=".747" stop-color="#FF8FED"/><stop offset=".825" stop-color="#FFFCEF"/></radialGradient><filter id="c" x="-23" y="-21" width="131" height="131" filterUnits="userSpaceOnUse" color-interpolation-filters="sRGB"><feFlood flood-opacity="0" result="BackgroundImageFix"/><feBlend in="SourceGraphic" in2="BackgroundImageFix" result="shape"/><feGaussianBlur stdDeviation="10" result="effect1_foregroundBlur_304_6507"/></filter><filter id="e" x="3" y="2" width="80" height="80.002" filterUnits="userSpaceOnUse" color-interpolation-filters="sRGB"><feFlood flood-opacity="0" result="BackgroundImageFix"/><feBlend in="SourceGraphic" in2="BackgroundImageFix" result="shape"/><feGaussianBlur stdDeviation="10" result="effect1_foregroundBlur_304_6507"/></filter></defs></svg>