<svg width="64" viewBox="0 0 64 64" fill="none" xmlns="http://www.w3.org/2000/svg"><path d="M32 0C14.315 0 0 14.312 0 32c0 7.928 2.92 15.533 8.227 21.419l.002.002C14.502 60.378 23.174 64 32 64c17.59 0 32-14.25 32-32C64 14.315 49.688 0 32 0ZM9.17 50.418A29.264 29.264 0 0 1 2.668 32c0-16.173 13.16-29.334 29.334-29.334 16.173 0 29.333 13.16 29.333 29.334 0 5.539-1.52 10.848-4.419 15.488l-6.378-13.394a1.334 1.334 0 0 0-2.19-.323L32.225 51.505 21.032 37.822a1.334 1.334 0 0 0-2.085.027l-9.776 12.57Zm1.8 2.03 9.057-11.643 10.387 12.693-6.176 6.795a29.174 29.174 0 0 1-13.267-7.845Zm16.273 8.498 21.742-23.914L55.16 50c-6.422 8.242-17.053 12.723-27.918 10.946Z" fill="#2BFF88"/><path d="M30.667 34.666c4.41 0 8-3.589 8-8 0-4.41-3.59-8-8-8-4.411 0-8 3.59-8 8 0 4.411 3.589 8 8 8Zm0-13.333A5.339 5.339 0 0 1 36 26.667 5.339 5.339 0 0 1 30.667 32a5.339 5.339 0 0 1-5.334-5.333 5.339 5.339 0 0 1 5.334-5.334Z" fill="#2BFF88"/></svg>