<svg width="86" height="88" viewBox="0 0 86 88" fill="none" xmlns="http://www.w3.org/2000/svg">
<path d="M44 88C41.7909 88 40 86.2091 40 84L40 60C40 57.7909 41.7909 56 44 56C46.2091 56 48 57.7909 48 60L48 84C48 86.2091 46.2091 88 44 88Z" fill="white"/>
<path d="M4 40C1.79087 40 4.03973e-06 41.7909 3.8466e-06 44C3.65347e-06 46.2091 1.79087 48 4 48L28 48C30.2091 48 32 46.2091 32 44C32 41.7909 30.2091 40 28 40L4 40Z" fill="white"/>
<path d="M44 32C41.7909 32 40 30.2091 40 28L40 4C40 1.79086 41.7909 -3.86489e-06 44 -3.67176e-06C46.2091 -3.47863e-06 48 1.79086 48 4L48 28C48 30.2091 46.2091 32 44 32Z" fill="white"/>
<path d="M58 40C55.7909 40 54 41.7909 54 44C54 46.2091 55.7909 48 58 48L82 48C84.2091 48 86 46.2091 86 44C86 41.7909 84.2091 40 82 40L58 40Z" fill="white"/>
<path d="M74.8196 74.4055C73.2575 75.9676 70.7248 75.9676 69.1627 74.4055L52.1922 57.4349C50.6301 55.8729 50.6301 53.3402 52.1922 51.7781C53.7543 50.216 56.2869 50.216 57.849 51.7781L74.8196 68.7487C76.3817 70.3108 76.3817 72.8434 74.8196 74.4055Z" fill="white"/>
<path d="M12.5942 68.7487C11.0321 70.3107 11.0321 72.8434 12.5942 74.4055C14.1563 75.9676 16.6889 75.9676 18.251 74.4055L35.2216 57.4349C36.7837 55.8729 36.7837 53.3402 35.2216 51.7781C33.6595 50.216 31.1269 50.216 29.5648 51.7781L12.5942 68.7487Z" fill="white"/>
<path d="M35.2216 34.8075C33.6595 36.3696 31.1269 36.3696 29.5648 34.8075L12.5942 17.837C11.0321 16.2749 11.0321 13.7422 12.5942 12.1801C14.1563 10.618 16.6889 10.618 18.251 12.1801L35.2216 29.1507C36.7837 30.7128 36.7837 33.2454 35.2216 34.8075Z" fill="white"/>
<path d="M50.778 30.5649C49.2159 32.127 49.2159 34.6596 50.778 36.2217C52.3401 37.7838 54.8727 37.7838 56.4348 36.2217L73.4054 19.2512C74.9675 17.6891 74.9675 15.1564 73.4054 13.5943C71.8433 12.0322 69.3106 12.0322 67.7485 13.5943L50.778 30.5649Z" fill="white"/>
</svg>
