<svg width="66" viewBox="0 0 66 22" fill="none" xmlns="http://www.w3.org/2000/svg"><path d="M15.515 20.662H9.75L6.2 11.757l.141 8.905H1V1.35h5.342l-.14 8.28 3.15-8.28h5.637l-4.266 9.319 4.792 9.993ZM30.99 11.07c0 2.943-.687 5.336-2.062 7.18C27.56 20.082 25.78 21 23.586 21c-1.948 0-3.617-.705-5.01-2.114-1.75-1.784-2.626-4.46-2.626-8.03 0-3.419.914-6.033 2.742-7.842C20.05 1.67 21.66 1 23.522 1c2.28 0 4.095.909 5.444 2.727 1.35 1.818 2.024 4.265 2.024 7.342Zm-5.547.037c0-3.494-.632-5.24-1.896-5.24-.632 0-1.136.458-1.512 1.375-.367.85-.55 2.102-.55 3.753 0 1.626.173 2.887.518 3.783.346.897.827 1.345 1.442 1.345.632 0 1.119-.442 1.46-1.326.359-.884.538-2.114.538-3.69Zm7.828 9.556V1.35h5.099l2.677 6.78c.145.4.31.858.493 1.375.184.517.387 1.113.609 1.789l.55 1.701c-.196-1.676-.345-3.11-.448-4.303a36.068 36.068 0 0 1-.154-3.002V1.35h5.1v19.312h-5.1l-2.69-7.104a85.597 85.597 0 0 1-.762-2.133 38.473 38.473 0 0 1-.596-1.895c.111 1.36.192 2.544.244 3.553.05 1.008.077 1.892.077 2.651v4.928h-5.1Zm23.802-11.17h7.456v.801c0 3.72-.567 6.396-1.703 8.03C61.587 20.108 59.756 21 57.33 21c-2.383 0-4.254-.875-5.611-2.627-1.35-1.767-2.025-4.194-2.025-7.28 0-3.126.68-5.59 2.037-7.391C53.09 1.9 54.947 1 57.304 1c3.126 0 5.393 1.593 6.803 4.778L58.93 7.629c-.077-.609-.254-1.09-.532-1.445-.277-.354-.625-.531-1.044-.531-1.469 0-2.203 1.972-2.203 5.916 0 1.676.162 2.894.487 3.652.324.76.84 1.139 1.55 1.139.282 0 .538-.067.768-.2.231-.134.425-.322.583-.563.158-.242.282-.536.372-.882.09-.346.134-.732.134-1.157h-1.973V9.493Z" fill="url(#a)"/><path d="M15.515 20.912h.397l-.172-.358L11 10.666l4.217-9.212.162-.354H9.18l-.06.161-2.644 6.946.116-6.853.004-.254H.75v19.812h5.846l-.004-.254-.12-7.545 3.046 7.642.062.157h5.935Zm2.883-1.85c1.439 1.456 3.172 2.188 5.188 2.188 2.277 0 4.13-.958 5.542-2.852 1.416-1.897 2.112-4.347 2.112-7.33 0-3.11-.682-5.616-2.073-7.49C27.77 1.696 25.88.75 23.522.75c-1.93 0-3.602.699-5.006 2.086-1.89 1.87-2.816 4.557-2.816 8.02 0 3.606.885 6.357 2.698 8.205ZM22.265 7.34l.002-.004c.362-.884.802-1.22 1.28-1.22.252 0 .468.084.66.261.198.182.377.47.527.884.301.832.46 2.106.46 3.845 0 1.562-.18 2.755-.52 3.596l-.002.004c-.326.844-.748 1.166-1.227 1.166-.458 0-.875-.322-1.208-1.185-.33-.854-.502-2.08-.502-3.693 0-1.64.183-2.85.53-3.654Zm10.756 13.322v.25h5.599v-5.178c0-.764-.026-1.652-.078-2.664-.022-.44-.05-.912-.084-1.418.215.623.453 1.288.715 1.993v.001l2.69 7.105.062.161H47.447V1.1h-5.6v4.59c0 .819.052 1.827.155 3.024.05.574.11 1.204.18 1.889a72.21 72.21 0 0 0-.406-1.181c-.184-.518-.349-.977-.494-1.378l-.002-.006-2.678-6.78-.063-.158h-5.518v19.562Zm24.052-11.42h-.25v4.566h1.968a4.11 4.11 0 0 1-.121.844 2.713 2.713 0 0 1-.339.808 1.479 1.479 0 0 1-.499.483c-.19.11-.403.167-.643.167a1.26 1.26 0 0 1-.772-.236c-.213-.157-.399-.401-.549-.75-.303-.71-.466-1.885-.466-3.555 0-1.964.184-3.406.535-4.35.175-.47.386-.8.621-1.01a1.15 1.15 0 0 1 .797-.306c.336 0 .613.136.848.436.24.308.407.742.48 1.321l.039.31.293-.105 5.176-1.852.253-.09-.109-.246c-.718-1.624-1.663-2.859-2.842-3.687-1.181-.83-2.581-1.24-4.189-1.24-2.431 0-4.365.934-5.772 2.801-1.401 1.859-2.088 4.382-2.088 7.543 0 3.12.682 5.606 2.076 7.431v.002c1.41 1.817 3.356 2.723 5.81 2.723 2.496 0 4.41-.924 5.7-2.784 1.182-1.7 1.75-4.44 1.75-8.173v-1.05h-7.707Z" stroke="#000" stroke-opacity=".5" stroke-width=".5"/><defs><linearGradient id="a" x1="7.5" y1="4" x2="69" y2="23" gradientUnits="userSpaceOnUse"><stop stop-color="#FFFCEF"/><stop offset=".275" stop-color="#FFFCEF" stop-opacity=".81"/><stop offset=".705" stop-color="#FFFCEF" stop-opacity=".8"/><stop offset="1" stop-color="#FFFCEF" stop-opacity=".97"/></linearGradient></defs></svg>